<?xml version="1.0" encoding="iso-8859-1" standalone="no"?> 
<?xml-stylesheet href="chap1-measure-theoretic-probability.css" type="text/css"?> 
<svg xmlns="http://www.w3.org/2000/svg" xmlns:xlink="http://www.w3.org/1999/xlink" width="267.1355pt" height="164.10963pt" viewBox="-91.44911 -23.16226 267.1355 164.10963 "> 
<g transform="translate(0, 140.94737 ) scale(1,-1) translate(0,23.16226 )"> 
                           </p>
                           <g stroke="#000" fill="#000">
 <g stroke-width="0.4">
 <g stroke-width="0.8">
 <path d=" M -91.04912 0.0 L 90.33911 0.0  " fill="none"/>
 <g transform="translate(90.33911,0.0)">
 <g stroke-width="0.64">
 <g stroke-dasharray="none" stroke-dashoffset="0.0">
 <g stroke-linecap="round">
 <g stroke-linejoin="round">
 <path d=" M -1.55997 2.07996 C -1.42996 1.29997 0.0 0.12999 0.38998 0.0 C 0.0 -0.12999 -1.42996 -1.29997 -1.55997 -2.07996  " fill="none"/>
 </g>
 </g>
 </g>
 </g>
  </g>
 <g transform="translate(94.78209,-2.15277)">
 <g fill="#000">
 <text style="stroke:none" transform="scale(1,-1) translate(2.85764,0)" text-anchor="middle"  font-size="10"> 
<g fill="#000">
 <g stroke="none"> <tspan font-family="cmmi" font-size="10">x</tspan></g> </g>
 </text> 
</g>
 </g>
 </g>
 <g stroke-width="0.8">
 <path d=" M 0.0 -22.76227 L 0.0 113.1014  " fill="none"/>
 <g transform="matrix(0.0,1.0,-1.0,0.0,0.0,113.1014)">
 <g stroke-width="0.64">
 <g stroke-dasharray="none" stroke-dashoffset="0.0">
 <g stroke-linecap="round">
 <g stroke-linejoin="round">
 <path d=" M -1.55997 2.07996 C -1.42996 1.29997 0.0 0.12999 0.38998 0.0 C 0.0 -0.12999 -1.42996 -1.29997 -1.55997 -2.07996  " fill="none"/>
 </g>
 </g>
 </g>
 </g>
  </g>
 <g transform="translate(-2.6308,119.4888)">
 <g fill="#000">
 <text style="stroke:none" transform="scale(1,-1) translate(2.6308,0)" text-anchor="middle"  font-size="10"> 
<g fill="#000">
 <g stroke="none"> <tspan font-family="cmmi" font-size="10">y</tspan> </g> </g>
 </text> 
</g>
 </g>
 </g>
 <g stroke="#d9d9d9" fill="#d9d9d9">
 <path d=" M -88.77274 -20.4859 M -88.77274 0.0 L 88.77274 0.0 M -88.77274 22.76227 L 88.77274 22.76227 M -88.77274 45.52455 L 88.77274 45.52455 M -88.77274 68.28683 L 88.77274 68.28683 M -88.77274 91.04912 L 88.77274 91.04912 M -68.28683 -20.4859 L -68.28683 111.53502 M -45.52455 -20.4859 L -45.52455 111.53502 M -22.76227 -20.4859 L -22.76227 111.53502 M 0.0 -20.4859 L 0.0 111.53502 M 22.76227 -20.4859 L 22.76227 111.53502 M 45.52455 -20.4859 L 45.52455 111.53502 M 68.28683 -20.4859 L 68.28683 111.53502 M 88.77274 111.53502  " fill="none"/>
 </g>
 <g stroke="#00f" fill="#00f">
 <g stroke-width="0.8">
 <path d=" M -68.28683 102.43025 L -65.4999 94.23999 L -62.71297 86.3908 L -59.92603 78.88303 L -57.13908 71.71666 L -54.35216 64.89137 L -51.56523 58.40718 L -48.77829 52.26439 L -45.99135 46.46268 L -43.20442 41.00238 L -40.41748 35.88316 L -37.63055 31.10536 L -34.84361 26.66864 L -32.05669 22.57298 L -29.26974 18.81874 L -26.4828 15.40558 L -23.69588 12.33385 L -20.90895 9.60316 L -18.12201 7.21358 L -15.33507 5.1654 L -12.54814 3.45865 L -9.7612 2.09262 L -6.97427 1.06836 L -4.18733 0.38483 L -1.4004 0.04306 L 1.3865 0.042 L 4.17345 0.38239 L 6.96037 1.06384 L 9.74731 2.08672 L 12.53424 3.451 L 15.32118 5.15602 L 18.10812 7.20247 L 20.89505 9.59032 L 23.68198 12.31926 L 26.46892 15.38927 L 29.25586 18.80069 L 32.04279 22.55353 L 34.82973 26.6471 L 37.61665 31.08209 L 40.4036 35.8585 L 43.19052 40.97598 L 45.97746 46.43454 L 48.7644 52.23451 L 51.55133 58.37592 L 54.33826 64.85805 L 57.1252 71.68193 L 59.91214 78.84654 L 62.69907 86.35258 L 65.48601 94.20004 L 68.27293 102.38858  " fill="none"/>
 </g>
 </g>
 <g stroke="#f00" fill="#f00">
 <path d=" M 45.52455 45.52455 M 47.8009 45.52455 C 47.8009 46.78175 46.78175 47.8009 45.52455 47.8009 C 44.26735 47.8009 43.2482 46.78175 43.2482 45.52455 C 43.2482 44.26735 44.26735 43.2482 45.52455 43.2482 C 46.78175 43.2482 47.8009 44.26735 47.8009 45.52455 Z M 45.52455 45.52455  " stroke="none"/>
 </g>
 <g transform="translate(49.05753,34.49158)">
 <g fill="#000">
 <text style="stroke:none" transform="scale(1,-1) translate(11.11111,0)" text-anchor="middle"  font-size="10"> 
<g fill="#000">
 <g stroke="none"> (2<tspan font-family="cmmi" font-size="10">,</tspan>2)</g> </g>
 </text> 
</g>
 </g>
 <g stroke-dasharray="3.0,3.0" stroke-dashoffset="0.0">
 <path d=" M 45.52455 0.0 L 45.52455 45.52455 L 0.0 45.52455  " fill="none"/>
 </g>
 <g transform="translate(-56.6807,130.66995)">
 <g fill="#000">
 <text style="stroke:none" transform="scale(1,-1) translate(56.6807,0)" text-anchor="middle"  font-size="10"> 
<g fill="#000">
 <g stroke="none"> Simple Parabola Example</g> </g>
 </text> 
</g>
 </g>
 <g stroke-width="0.8">
 <path d=" M 68.28683 68.28683 L 91.04912 68.28683  " fill="none"/>
 <g transform="translate(94.78209,65.78682)">
 <g fill="#000">
 <text style="stroke:none" transform="scale(1,-1) translate(38.78566,0)" text-anchor="middle"  font-size="10"> 
<g fill="#000">
 <g stroke="none"> Parabola  <tspan font-family="cmmi" font-size="10">y </tspan>= <img 
src="chap1-measure-theoretic-probability0x.png" alt="12"  class="frac" align="middle" /><tspan font-family="cmmi" font-size="10">x</tspan><tspan baseline-shift="sub"><tspan font-family="cmr" font-size="7">2</tspan></tspan></g> </g>
 </text> 
</g>
 </g>
 </g>
 <g stroke="#f00" fill="#f00">
 <g stroke-width="0.8">
 <path d=" M 68.28683 56.90569 L 91.04912 56.90569  " fill="none"/>
 <g transform="translate(94.78209,54.40569)">
 <g fill="#f00">
 <text style="stroke:none" transform="scale(1,-1) translate(32.15286,0)" text-anchor="middle"  font-size="10"> 
<g fill="#f00">
 <g stroke="none"> Example point </g> </g>
 </text> 
</g>
 </g>
 </g>
 </g>
 </g>
 </g>
 
                                                                                </g> 
</svg> 
